<svg width="37" height="37" viewBox="0 0 37 37" fill="none" xmlns="http://www.w3.org/2000/svg">
<g clip-path="url(#clip0_549_67)">
<path d="M25 26H24.3333V8C24.3333 4.692 21.6413 2 18.3333 2H9C5.692 2 3 4.692 3 8V29.3333C3 31.9067 5.092 33.9987 7.664 34H24.3333C26.5387 34 28.3333 32.2053 28.3333 30V29.3333C28.3333 27.4947 26.8387 26 25 26ZM9.66667 29.3333C9.66667 30.436 8.76933 31.3333 7.66667 31.3333C6.564 31.3333 5.66667 30.436 5.66667 29.3333V8C5.66667 6.16133 7.16133 4.66667 9 4.66667H18.3333C20.172 4.66667 21.6667 6.16133 21.6667 8V26H13C11.1613 26 9.66667 27.4947 9.66667 29.3333ZM25.6667 30C25.6667 30.736 25.0693 31.3333 24.3333 31.3333H11.8827C12.172 30.7267 12.3333 30.048 12.3333 29.3333C12.3333 28.9667 12.6333 28.6667 13 28.6667H25C25.3667 28.6667 25.6667 28.9667 25.6667 29.3333V30ZM31 2C28.7947 2 27 3.79467 27 6V19.7907C27 21.572 27.6947 23.2467 28.9533 24.5053L30.0573 25.6093C30.3173 25.8693 30.6587 26 31 26C31.3413 26 31.6827 25.8693 31.9427 25.6093L33.0467 24.5053C34.3053 23.2467 35 21.572 35 19.7907V6C35 3.79467 33.2053 2 31 2ZM32.3333 19.7907C32.3333 20.86 31.916 21.8653 31.1613 22.62L31 22.7813L30.8387 22.62C30.084 21.8653 29.6667 20.86 29.6667 19.7907V6C29.6667 5.264 30.264 4.66667 31 4.66667C31.736 4.66667 32.3333 5.264 32.3333 6V19.7907ZM7.39067 11.4627C6.86933 10.9413 6.86933 10.0973 7.39067 9.57733C7.912 9.056 8.75467 9.056 9.276 9.57733L10.9933 11.296C11.0373 11.34 11.1333 11.34 11.1787 11.296L14.084 8.39067C14.6053 7.86933 15.448 7.86933 15.9693 8.39067C16.4907 8.912 16.4907 9.75467 15.9693 10.276L13.064 13.1813C12.5187 13.7267 11.8027 13.9987 11.0867 13.9987C10.3707 13.9987 9.65467 13.7267 9.10933 13.1813L7.39067 11.4627ZM13.064 21.1813C12.5187 21.7267 11.8027 21.9987 11.0867 21.9987C10.3707 21.9987 9.65467 21.7267 9.10933 21.1813L7.392 19.4627C6.87067 18.9413 6.87067 18.0973 7.392 17.5773C7.91333 17.056 8.756 17.056 9.27733 17.5773L10.9947 19.296C11.0387 19.34 11.1347 19.34 11.18 19.296L14.0853 16.3907C14.6067 15.8693 15.4493 15.8693 15.9707 16.3907C16.492 16.912 16.492 17.7547 15.9707 18.276L13.064 21.1813Z" fill="#1E9DD8"/>
</g>
<defs>
<clipPath id="clip0_549_67">
<rect width="32" height="32" fill="white" transform="translate(3 2)"/>
</clipPath>
</defs>
</svg>
