<svg width="37" height="37" viewBox="0 0 37 37" fill="none" xmlns="http://www.w3.org/2000/svg">
<path d="M27.9195 18.5417L27.8941 18.5001C28.0389 18.3735 28.1748 18.2289 28.2871 18.0565L28.2871 18.0564C28.7075 17.4094 28.7734 16.6027 28.468 15.8961L27.652 13.818H29.0013C29.7883 13.818 30.4529 14.0109 30.9661 14.3632C31.4783 14.7147 31.8481 15.2307 32.0385 15.8934L32.1772 16.3761L32.2084 16.4847H32.3213H33.6667H33.8167V16.3347V11.1438C34.5641 11.0683 35.15 10.4349 35.15 9.668C35.15 8.90128 34.5642 8.26654 33.8167 8.19088V3V2.85H33.6667H32.32H32.207L32.1758 2.95858L32.0372 3.44125C31.8468 4.10401 31.4772 4.61999 30.9653 4.97151C30.4523 5.32376 29.7876 5.51667 29 5.51667H24.3333C22.7798 5.51667 21.5167 6.77982 21.5167 8.33333V11C21.5167 12.0108 22.0566 12.8883 22.8544 13.3842L24.8311 18.5159L22.1044 20.1833H7C4.71182 20.1833 2.85 22.0452 2.85 24.3333V35V35.15H3H4.33333H4.48333V35V24.3333C4.48333 22.9455 5.61218 21.8167 7 21.8167H22.5213H22.5636L22.5996 21.7946L27.7916 18.62L27.9195 18.5417ZM26.9524 16.5068L26.9527 16.5077L26.9634 16.5344L26.9633 16.5344L26.9654 16.5392C27.0557 16.7436 27.0373 16.978 26.9156 17.1662C26.8544 17.2602 26.773 17.3348 26.6794 17.3854L26.6782 17.386C26.5852 17.4373 26.4783 17.4647 26.3653 17.4647H26.1763L24.7718 13.8167H25.8964L26.9524 16.5068ZM16.3333 24.1833H16.1833V24.3333V35V35.15H16.3333H17.6667H17.8167V35V24.3333V24.1833H17.6667H16.3333ZM29 12.1833H24.3333C23.6815 12.1833 23.15 11.6518 23.15 11V8.33333C23.15 7.68151 23.6815 7.15 24.3333 7.15H29C30.2606 7.15 31.3553 6.78116 32.1833 6.10318V13.2304C31.3545 12.5523 30.2608 12.1833 29 12.1833ZM11.6667 17.8167C15.0575 17.8167 17.8167 15.0575 17.8167 11.6667C17.8167 8.27582 15.0575 5.51667 11.6667 5.51667C8.27582 5.51667 5.51667 8.27582 5.51667 11.6667C5.51667 15.0575 8.27582 17.8167 11.6667 17.8167ZM11.6667 7.15C14.1572 7.15 16.1833 9.17618 16.1833 11.6667C16.1833 14.1572 14.1572 16.1833 11.6667 16.1833C9.17618 16.1833 7.15 14.1572 7.15 11.6667C7.15 9.17618 9.17618 7.15 11.6667 7.15Z" fill="#1E9DD8" stroke="#1E9DD8" stroke-width="0.3"/>
</svg>
