<svg width="37" height="37" viewBox="0 0 37 37" fill="none" xmlns="http://www.w3.org/2000/svg">
<path d="M22.2272 15.6387L21.1485 12.036L23.9977 9.73867V8.668H19.9393L18.5473 4.668H17.4634L16.0607 8.668H12.6689L12.0022 8.752V9.73733L14.8515 12.0347L13.7742 15.6373L14.6235 16.284L18.0007 14.092L21.3779 16.284L22.2272 15.6387ZM22.0112 23.312C30.8308 23.08 34 18.4267 34 14.4173C34 12.1387 32.2587 10.2787 30.0402 10.0467C30.5975 8.60933 31.0188 7.208 31.2694 5.98933C31.4668 5.01867 31.2201 4.01867 30.5881 3.24533C29.9428 2.45333 28.9882 2 27.9683 2H8.03175C7.01046 2 6.05583 2.45467 5.41052 3.24533C4.77855 4.02 4.53189 5.02 4.73055 5.98933C4.98121 7.20933 5.40252 8.60933 5.95984 10.0467C3.74259 10.2787 2 12.1387 2 14.4173C2 18.4267 5.1692 23.08 13.9888 23.312C13.9915 23.38 13.9995 23.448 13.9995 23.516V29.3333C13.9995 32.5493 11.005 32.664 10.6636 32.6667H8.66639V34H27.3323V32.6667H25.335C24.9937 32.664 21.9992 32.5493 21.9992 29.3333V23.516C21.9992 23.4467 22.0085 23.38 22.0098 23.312H22.0112ZM32.6667 14.4173C32.6667 17.9533 29.8802 21.7147 22.1818 21.976C22.4951 20.6267 23.2111 19.4267 24.2311 18.612C26.547 16.76 28.2896 14.0427 29.5042 11.3347H29.5842C31.2841 11.3347 32.6667 12.7173 32.6667 14.4173ZM3.33461 14.4173C3.33461 12.7173 4.71722 11.3347 6.41715 11.3347H6.49715C7.71176 14.044 9.45302 16.76 11.7703 18.612C12.7902 19.428 13.5062 20.628 13.8195 21.976C6.12116 21.7147 3.33461 17.9547 3.33461 14.4173ZM21.9752 32.668H14.0275C14.7781 31.9467 15.3354 30.8933 15.3354 29.3347V23.5173C15.3354 21.1267 14.3408 18.9587 12.6049 17.5707C8.95438 14.652 6.78647 9.364 6.03717 5.72133C5.91984 5.14533 6.0665 4.55067 6.44381 4.088C6.8358 3.60933 7.41444 3.33467 8.03175 3.33467H27.9683C28.5856 3.33467 29.1629 3.60933 29.5535 4.088C29.9308 4.55067 30.0802 5.14533 29.9615 5.72133C29.2135 9.36267 27.0456 14.6507 23.3964 17.5707C21.6605 18.9573 20.6659 21.1253 20.6659 23.5173V29.3347C20.6659 30.8933 21.2232 31.9467 21.9738 32.668H21.9752Z" fill="#1E9DD8"/>
</svg>
