<svg width="37" height="37" viewBox="0 0 37 37" fill="none" xmlns="http://www.w3.org/2000/svg">
<path d="M36 8.2396C36 5.01664 33.3838 2.39562 30.1667 2.39562C26.9496 2.39562 24.3333 5.01664 24.3333 8.2396C24.3333 10.9571 26.1956 13.2479 28.7083 13.898V22.8496C28.7083 25.2661 26.7454 27.2326 24.3333 27.2326H19.4202L22.6329 24.014C23.2031 23.4427 23.2031 22.5194 22.6329 21.9481C22.0627 21.3769 21.141 21.3769 20.5708 21.9481L16.8652 25.6605C16.0646 26.4612 15.5833 27.2326 15.5833 28.6936C15.5833 30.1546 16.0165 31.0092 16.8652 31.8595L20.5708 35.5719C20.8552 35.8568 21.2285 36 21.6019 36C21.9752 36 22.3485 35.8568 22.6329 35.5719C23.2031 35.0007 23.2031 34.0773 22.6329 33.5061L19.289 30.156H24.3333C28.354 30.156 31.625 26.879 31.625 22.851V13.8995C34.1377 13.2494 36 10.9571 36 8.2396ZM30.1667 11.1616C28.5581 11.1616 27.25 9.85108 27.25 8.2396C27.25 6.62812 28.5581 5.31761 30.1667 5.31761C31.7752 5.31761 33.0833 6.62812 33.0833 8.2396C33.0833 9.85108 31.7752 11.1616 30.1667 11.1616ZM20.2558 11.3398C21.0827 10.5115 21.5377 9.41132 21.5377 8.2396C21.5377 7.06788 21.0827 5.96775 20.2558 5.14083L16.5502 1.42844C15.98 0.857188 15.0583 0.857188 14.4881 1.42844C13.9179 1.99969 13.9179 2.92304 14.4881 3.49429L17.765 6.77861H12.6667C8.64604 6.77861 5.375 10.0556 5.375 14.0836V23.0351C2.86229 23.6853 1 25.9761 1 28.6936C1 31.9165 3.61625 34.5375 6.83333 34.5375C10.0504 34.5375 12.6667 31.9165 12.6667 28.6936C12.6667 25.9761 10.8044 23.6853 8.29167 23.0351V14.0836C8.29167 11.6671 10.2546 9.7006 12.6667 9.7006H17.7665L14.4881 12.9849C13.9179 13.5562 13.9179 14.4795 14.4881 15.0508C14.7725 15.3357 15.1458 15.4788 15.5192 15.4788C15.8925 15.4788 16.2658 15.3357 16.5502 15.0508L20.2558 11.3398ZM9.75 28.6936C9.75 30.305 8.44188 31.6155 6.83333 31.6155C5.22479 31.6155 3.91667 30.305 3.91667 28.6936C3.91667 27.0821 5.22479 25.7716 6.83333 25.7716C8.44188 25.7716 9.75 27.0821 9.75 28.6936Z" fill="#1E9DD8"/>
</svg>
