<svg width="37" height="37" viewBox="0 0 37 37" fill="none" xmlns="http://www.w3.org/2000/svg">
<path d="M18.3048 24.0294L18.304 24.029C17.0225 23.4455 15.6524 23.15 14.2311 23.15C9.01919 23.15 4.69997 27.2219 4.39833 32.4199C4.37492 32.8327 4.03214 33.15 3.62482 33.15H3.62475H3.62468H3.62461H3.62453H3.62446H3.62439H3.62431H3.62424H3.62417H3.62409H3.62402H3.62395H3.62387H3.6238H3.62373H3.62365H3.62358H3.62351H3.62343H3.62336H3.62329H3.62321H3.62314H3.62307H3.62299H3.62292H3.62285H3.62277H3.6227H3.62263H3.62255H3.62248H3.62241H3.62233H3.62226H3.62219H3.62212H3.62204H3.62197H3.6219H3.62182H3.62175H3.62168H3.6216H3.62153H3.62146H3.62138H3.62131H3.62124H3.62116H3.62109H3.62102H3.62094H3.62087H3.6208H3.62072H3.62065H3.62058H3.62051H3.62043H3.62036H3.62029H3.62021H3.62014H3.62007H3.61999H3.61992H3.61985H3.61977H3.6197H3.61963H3.61955H3.61948H3.61941H3.61934H3.61926H3.61919H3.61912H3.61904H3.61897H3.6189H3.61882H3.61875H3.61868H3.6186H3.61853H3.61846H3.61839H3.61831H3.61824H3.61817H3.61809H3.61802H3.61795H3.61787H3.6178H3.61773H3.61766H3.61758H3.61751H3.61744H3.61736H3.61729H3.61722H3.61715H3.61707H3.617H3.61693H3.61685H3.61678H3.61671H3.61663H3.61656H3.61649H3.61642H3.61634H3.61627H3.6162H3.61612H3.61605H3.61598H3.61591H3.61583H3.61576H3.61569H3.61561H3.61554H3.61547H3.6154H3.61532H3.61525H3.61518H3.61511H3.61503H3.61496H3.61489H3.61481H3.61474H3.61467H3.6146H3.61452H3.61445H3.61438H3.61431H3.61423H3.61416H3.61409H3.61401H3.61394H3.61387H3.6138H3.61372H3.61365H3.61358H3.61351H3.61343H3.61336H3.61329H3.61322H3.61314H3.61307H3.613H3.61293H3.61285H3.61278H3.61271H3.61264H3.61256H3.61249H3.61242H3.61235H3.61227H3.6122H3.61213H3.61206H3.61198H3.61191H3.61184H3.61177H3.6117H3.61162H3.61155H3.61148H3.61141H3.61133H3.61126H3.61119H3.61112H3.61104H3.61097H3.6109H3.61083H3.61076H3.61068H3.61061H3.61054H3.61047H3.61039H3.61032H3.61025H3.61018H3.61011H3.61003H3.60996H3.60989H3.60982H3.60975H3.60967H3.6096H3.60953H3.60946H3.60939H3.60931H3.60924H3.60917H3.6091H3.60903H3.60895H3.60888H3.60881H3.60874H3.60867H3.60859H3.60852H3.60845H3.60838H3.60831H3.60824H3.60816H3.60809H3.60802H3.60795H3.60788H3.60781H3.60773H3.60766H3.60759H3.60752H3.60745H3.60738H3.6073H3.60723H3.60716H3.60709H3.60702H3.60695H3.60687H3.6068H3.60673H3.60666H3.60659H3.60652H3.60645H3.60637H3.6063H3.60623H3.60616H3.60609H3.60602H3.60595H3.60587H3.6058H3.60573H3.60566H3.60559H3.60552H3.60545H3.60537H3.6053H3.60523H3.60516H3.60509H3.60502H3.60495H3.60488H3.60481H3.60473H3.60466H3.60459H3.60452H3.60445H3.60438H3.60431H3.60424H3.60417H3.6041H3.60402H3.60395H3.60388H3.60381H3.60374H3.60367H3.6036H3.60353H3.60346H3.60339H3.60332H3.60324H3.60317H3.6031H3.60303H3.60296H3.60289H3.60282H3.60275H3.60268H3.60261H3.60254H3.60247H3.6024H3.60233H3.60226H3.60219H3.60211H3.60204H3.60197H3.6019H3.60183H3.60176H3.60169H3.60162H3.60155H3.60148H3.60141H3.60134H3.60127H3.6012H3.60113H3.60106H3.60099H3.60092H3.60085H3.60078H3.60071H3.60064H3.60057H3.6005H3.60043H3.60036H3.60029H3.60022H3.60015H3.60008H3.60001H3.59994H3.59987H3.5998H3.59973H3.59966H3.59959H3.59952H3.59945H3.59938H3.59931H3.59924H3.59917H3.5991H3.59903H3.59896H3.59889H3.59882H3.59875H3.59868H3.59861H3.59854H3.59847H3.59841H3.59834H3.59827H3.5982H3.59813H3.59806H3.59799H3.59792H3.59785H3.59778H3.59771H3.59764H3.59757H3.5975H3.59743H3.59737H3.5973H3.59723H3.59716H3.59709H3.59702H3.59695H3.59688H3.59681H3.59674H3.59667H3.59661H3.59654H3.59647H3.5964H3.59633H3.59626H3.59619H3.59612H3.59605H3.59599H3.59592H3.59585H3.59578H3.59571H3.59564H3.59557H3.59551H3.59544H3.59537H3.5953H3.59523H3.59516H3.59509H3.59503H3.59496H3.59489H3.59482H3.59475H3.59468H3.59462H3.59455H3.59448H3.59441H3.59434H3.59428H3.59421H3.59414H3.59407H3.594H3.59393H3.59387H3.5938H3.59373H3.59366H3.59359H3.59353H3.59346H3.59339H3.59332H3.59326H3.59319H3.59312H3.59305H3.59298H3.59292H3.59285H3.59278H3.59271H3.59265H3.59258H3.59251H3.59244H3.59238H3.59231H3.59224H3.59217H3.59211H3.59204H3.59197H3.5919H3.59184H3.59177H3.5917H3.59164H3.59157H3.5915H3.59143H3.59137H3.5913H3.59123H3.59117H3.5911H3.59103H3.59097H3.5909H3.59083H3.59076H3.5907H3.59063H3.59056H3.5905H3.59043H3.59036H3.5903H3.59023H3.59016H3.5901H3.59003H3.58996H3.5899H3.58983H3.58977H3.5897H3.58963H3.58957H3.5895H3.58943H3.58937H3.5893H3.58924H3.58917H3.5891H3.58904H3.58897H3.5889H3.58884H3.58877H3.58871H3.58864H3.58857H3.57988L3.57989 33.1497C3.15213 33.125 2.82653 32.759 2.85132 32.3313C3.19968 26.3144 8.19926 21.6013 14.2311 21.6013C15.8749 21.6013 17.4611 21.9445 18.9457 22.6197L18.3048 24.0294ZM18.3048 24.0294C18.6932 24.2036 19.1528 24.0378 19.3302 23.6458M18.3048 24.0294L19.3302 23.6458M19.3302 23.6458C19.5069 23.2568 19.3351 22.7966 18.9458 22.6197L19.3302 23.6458ZM31.125 20.35H26.125C25.0084 20.35 24.0999 21.2584 24.0999 22.375V24.1H22.3749C21.2583 24.1 20.3499 25.0084 20.3499 26.125V27.85H18.6249C17.5083 27.85 16.5999 28.7584 16.5999 29.875V31.125C16.5999 32.2416 17.5083 33.15 18.6249 33.15H31.125C32.2416 33.15 33.15 32.2416 33.15 31.125V22.375C33.15 21.2584 32.2416 20.35 31.125 20.35ZM31.6 25.65V27.85H29.4V25.65H31.6ZM25.65 22.375C25.65 22.1141 25.864 21.9 26.125 21.9H31.125C31.3859 21.9 31.6 22.1141 31.6 22.375V24.1H25.65V22.375ZM21.8999 26.125C21.8999 25.8641 22.114 25.65 22.3749 25.65H27.85V27.85H21.8999V26.125ZM18.1499 31.125V29.875C18.1499 29.6139 18.3629 29.4 18.6249 29.4H24.0999V31.6H18.6249C18.3629 31.6 18.1499 31.3861 18.1499 31.125ZM31.6 31.125C31.6 31.3859 31.3859 31.6 31.125 31.6H25.65V29.4H31.6V31.125Z" fill="#1E9DD8" stroke="#1E9DD8" stroke-width="0.3"/>
<path d="M21 12C21 15.9278 18.03 19 14.5 19C10.97 19 8 15.9278 8 12C8 8.07223 10.97 5 14.5 5C18.03 5 21 8.07223 21 12Z" stroke="#1E9DD8" stroke-width="2"/>
<path d="M6 11H23" stroke="#1E9DD8" stroke-width="2" stroke-linecap="round"/>
<path d="M13 6L13 8" stroke="#1E9DD8" stroke-width="2" stroke-linecap="round"/>
<path d="M16 6L16 8" stroke="#1E9DD8" stroke-width="2" stroke-linecap="round"/>
</svg>
